<svg width="301" height="84" viewBox="0 0 301 84" fill="none" xmlns="http://www.w3.org/2000/svg">
<mask id="mask0_1_303" style="mask-type:luminance" maskUnits="userSpaceOnUse" x="217" y="0" width="84" height="84">
<path d="M300.344 0H217V83.3444H300.344V0Z" fill="white"/>
</mask>
<g mask="url(#mask0_1_303)">
<mask id="mask1_1_303" style="mask-type:alpha" maskUnits="userSpaceOnUse" x="221" y="4" width="76" height="76">
<path d="M258.672 4.16721C279.371 4.16721 296.177 20.9736 296.177 41.6722C296.177 62.3708 279.371 79.1772 258.672 79.1772C237.974 79.1772 221.167 62.3708 221.167 41.6722C221.167 20.9736 237.974 4.16721 258.672 4.16721Z" fill="#D9D9D9"/>
</mask>
<g mask="url(#mask1_1_303)">
<path d="M224.501 3.7505H296.594V53.3404H224.501V3.7505Z" fill="url(#paint0_linear_1_303)"/>
</g>
<mask id="mask2_1_303" style="mask-type:alpha" maskUnits="userSpaceOnUse" x="221" y="4" width="76" height="76">
<path d="M258.672 4.16721C279.371 4.16721 296.177 20.9736 296.177 41.6722C296.177 62.3708 279.371 79.1772 258.672 79.1772C237.974 79.1772 221.167 62.3708 221.167 41.6722C221.167 20.9736 237.974 4.16721 258.672 4.16721Z" fill="#D9D9D9"/>
</mask>
<g mask="url(#mask2_1_303)">
<path d="M287.059 39.355C287.059 38.9466 287.393 38.6132 287.801 38.6132C288.209 38.6132 288.543 38.9466 288.543 39.355V44.1014C288.543 44.5098 288.209 44.8432 287.801 44.8432C287.393 44.8432 287.059 44.5098 287.059 44.1014V39.355Z" fill="#674447"/>
</g>
<mask id="mask3_1_303" style="mask-type:alpha" maskUnits="userSpaceOnUse" x="221" y="4" width="76" height="76">
<path d="M258.672 4.16721C279.371 4.16721 296.177 20.9736 296.177 41.6722C296.177 62.3708 279.371 79.1772 258.672 79.1772C237.974 79.1772 221.167 62.3708 221.167 41.6722C221.167 20.9736 237.974 4.16721 258.672 4.16721Z" fill="#D9D9D9"/>
</mask>
<g mask="url(#mask3_1_303)">
<path d="M284.092 30.7497C284.092 28.8661 285.622 27.3367 287.505 27.3367C289.389 27.3367 290.914 28.8661 290.914 30.7497V35.792C290.914 37.6756 289.389 39.2008 287.505 39.2008C285.622 39.2008 284.092 37.6756 284.092 35.792V30.7497Z" fill="#43AB5F"/>
</g>
<mask id="mask4_1_303" style="mask-type:alpha" maskUnits="userSpaceOnUse" x="221" y="4" width="76" height="76">
<path d="M258.672 4.16721C279.371 4.16721 296.177 20.9736 296.177 41.6722C296.177 62.3708 279.371 79.1772 258.672 79.1772C237.974 79.1772 221.167 62.3708 221.167 41.6722C221.167 20.9736 237.974 4.16721 258.672 4.16721Z" fill="#D9D9D9"/>
</mask>
<g mask="url(#mask4_1_303)">
<path d="M288.247 29.8579C288.247 29.4495 288.58 29.1161 288.989 29.1161C289.397 29.1161 289.73 29.4495 289.73 29.8579V36.3838C289.73 36.7922 289.397 37.1255 288.989 37.1255C288.58 37.1255 288.247 36.7922 288.247 36.3838V29.8579Z" fill="#71BE63"/>
</g>
<mask id="mask5_1_303" style="mask-type:alpha" maskUnits="userSpaceOnUse" x="221" y="4" width="76" height="76">
<path d="M258.672 4.16721C279.371 4.16721 296.177 20.9736 296.177 41.6722C296.177 62.3708 279.371 79.1772 258.672 79.1772C237.974 79.1772 221.167 62.3708 221.167 41.6722C221.167 20.9736 237.974 4.16721 258.672 4.16721Z" fill="#D9D9D9"/>
</mask>
<g mask="url(#mask5_1_303)">
<path d="M229.805 16.4605H248.558C248.42 15.4896 247.933 13.9602 246.891 13.3351C245.591 12.5558 244.182 13.1267 244.182 13.1267C244.182 13.1267 242.099 10.418 238.765 10.418C236.473 10.418 235.639 10.8348 234.598 11.6682C233.447 12.5892 233.556 12.9184 233.556 12.9184C233.556 12.9184 231.264 12.9184 230.43 14.3769C229.764 15.5437 229.734 16.1146 229.805 16.4605Z" fill="white"/>
</g>
<mask id="mask6_1_303" style="mask-type:alpha" maskUnits="userSpaceOnUse" x="221" y="4" width="76" height="76">
<path d="M258.672 4.16721C279.371 4.16721 296.177 20.9736 296.177 41.6722C296.177 62.3708 279.371 79.1772 258.672 79.1772C237.974 79.1772 221.167 62.3708 221.167 41.6722C221.167 20.9736 237.974 4.16721 258.672 4.16721Z" fill="#D9D9D9"/>
</mask>
<g mask="url(#mask6_1_303)">
<path d="M263.03 26.0451H281.783C281.645 25.0742 281.158 23.5448 280.116 22.9197C278.816 22.1404 277.407 22.7113 277.407 22.7113C277.407 22.7113 275.323 20.0027 271.99 20.0027C269.698 20.0027 268.864 20.4194 267.822 21.2528C266.672 22.1738 266.781 22.503 266.781 22.503C266.781 22.503 264.489 22.503 263.655 23.9615C262.989 25.1283 262.959 25.6992 263.03 26.0451Z" fill="white"/>
</g>
<mask id="mask7_1_303" style="mask-type:alpha" maskUnits="userSpaceOnUse" x="221" y="4" width="76" height="76">
<path d="M258.672 4.16721C279.371 4.16721 296.177 20.9736 296.177 41.6722C296.177 62.3708 279.371 79.1772 258.672 79.1772C237.974 79.1772 221.167 62.3708 221.167 41.6722C221.167 20.9736 237.974 4.16721 258.672 4.16721Z" fill="#D9D9D9"/>
</mask>
<g mask="url(#mask7_1_303)">
<path d="M260.915 12.9184H275.479C275.371 12.1141 274.992 10.8473 274.183 10.3305C273.175 9.68461 272.079 10.1597 272.079 10.1597C272.079 10.1597 270.462 7.91771 267.874 7.91771C266.095 7.91771 265.445 8.25942 264.636 8.95118C263.744 9.71378 263.828 9.98882 263.828 9.98882C263.828 9.98882 262.044 9.98465 261.398 11.1931C260.881 12.1599 260.861 12.6308 260.915 12.9184Z" fill="white"/>
</g>
<mask id="mask8_1_303" style="mask-type:alpha" maskUnits="userSpaceOnUse" x="221" y="4" width="76" height="76">
<path d="M258.672 4.16721C279.371 4.16721 296.177 20.9736 296.177 41.6722C296.177 62.3708 279.371 79.1772 258.672 79.1772C237.974 79.1772 221.167 62.3708 221.167 41.6722C221.167 20.9736 237.974 4.16721 258.672 4.16721Z" fill="#D9D9D9"/>
</mask>
<g mask="url(#mask8_1_303)">
<g opacity="0.5">
<path d="M243.055 16.4605H261.808C261.67 15.4896 261.183 13.9602 260.141 13.3351C258.841 12.5558 257.432 13.1267 257.432 13.1267C257.432 13.1267 255.348 10.418 252.015 10.418C249.723 10.418 248.889 10.8348 247.847 11.6682C246.697 12.5892 246.806 12.9184 246.806 12.9184C246.806 12.9184 244.514 12.9184 243.68 14.3769C243.013 15.5437 242.984 16.1146 243.055 16.4605Z" fill="white"/>
</g>
</g>
<mask id="mask9_1_303" style="mask-type:alpha" maskUnits="userSpaceOnUse" x="221" y="4" width="76" height="76">
<path d="M258.672 4.16721C279.371 4.16721 296.177 20.9736 296.177 41.6722C296.177 62.3708 279.371 79.1772 258.672 79.1772C237.974 79.1772 221.167 62.3708 221.167 41.6722C221.167 20.9736 237.974 4.16721 258.672 4.16721Z" fill="#D9D9D9"/>
</mask>
<g mask="url(#mask9_1_303)">
<g opacity="0.5">
<path d="M275.857 14.5853H286.675C286.596 14.0477 286.313 13.2059 285.713 12.86C284.963 12.4308 284.15 12.7475 284.15 12.7475C284.15 12.7475 282.95 11.2515 281.025 11.2515C279.704 11.2515 279.22 11.4849 278.62 11.9433C277.958 12.4517 278.02 12.6308 278.02 12.6308C278.02 12.6308 276.695 12.6308 276.216 13.4351C275.832 14.0769 275.816 14.3936 275.857 14.5853Z" fill="white"/>
</g>
</g>
<mask id="mask10_1_303" style="mask-type:alpha" maskUnits="userSpaceOnUse" x="221" y="4" width="76" height="76">
<path d="M258.672 4.16721C279.371 4.16721 296.177 20.9736 296.177 41.6722C296.177 62.3708 279.371 79.1772 258.672 79.1772C237.974 79.1772 221.167 62.3708 221.167 41.6722C221.167 20.9736 237.974 4.16721 258.672 4.16721Z" fill="#D9D9D9"/>
</mask>
<g mask="url(#mask10_1_303)">
<path d="M216.317 36.0282C215.275 28.5272 214.025 27.948 216.733 25.8644C219.442 23.7808 220.901 24.1975 222.567 25.8644C224.234 27.5313 225.539 26.0727 226.372 25.4477C227.206 24.8226 230.331 23.5724 231.789 24.6142C233.248 25.656 236.79 26.6978 238.457 26.2811C240.124 25.8644 239.707 27.7396 241.582 28.7814C243.458 29.8232 242.624 29.6149 245.333 29.4065C248.042 29.1982 250.542 32.2777 251.584 32.2777C252.626 32.2777 253.459 31.0734 255.334 31.4901C257.209 31.9068 255.959 36.0282 258.668 36.0282C261.377 36.0282 262.21 34.153 264.085 36.0282C265.961 37.9035 266.794 41.6998 268.669 41.6998C270.545 41.6998 271.532 37.9035 275.491 39.362C279.45 40.8205 282.575 41.0289 284.242 41.0289C285.909 41.0289 285.909 48.7383 285.492 49.155C285.159 49.4884 241.182 49.2925 219.234 49.155L216.317 36.0282Z" fill="#36B294"/>
</g>
<mask id="mask11_1_303" style="mask-type:alpha" maskUnits="userSpaceOnUse" x="221" y="4" width="76" height="76">
<path d="M258.672 4.16721C279.371 4.16721 296.177 20.9736 296.177 41.6722C296.177 62.3708 279.371 79.1772 258.672 79.1772C237.974 79.1772 221.167 62.3708 221.167 41.6722C221.167 20.9736 237.974 4.16721 258.672 4.16721Z" fill="#D9D9D9"/>
</mask>
<g mask="url(#mask11_1_303)">
<path d="M216.317 40.8343C215.275 33.3334 219.859 31.6665 222.567 29.5829C225.276 27.4992 226.735 27.916 228.402 29.5829C230.068 31.2497 231.735 30.2079 232.569 29.5829C233.402 28.9578 234.861 28.5411 236.319 29.5829C237.778 30.6247 238.611 32.0832 240.278 31.6665C241.945 31.2497 242.987 30.2079 244.862 31.2497C246.737 32.2915 246.946 35.6253 249.654 35.417C252.363 35.2086 253.613 33.125 254.655 33.125C255.697 33.125 254.447 36.6671 256.322 37.0838C258.197 37.5006 257.155 37.0838 259.864 37.0838C262.573 37.0838 261.323 37.0838 263.198 38.9591C265.073 40.8343 267.365 40.8343 269.24 40.8343C271.116 40.8343 271.532 42.7096 275.491 44.1681C279.45 45.6266 282.575 45.835 284.242 45.835C285.909 45.835 285.909 53.5444 285.492 53.9611C285.159 54.2945 241.182 54.0986 219.234 53.9611L216.317 40.8343Z" fill="#00A07D"/>
</g>
<mask id="mask12_1_303" style="mask-type:alpha" maskUnits="userSpaceOnUse" x="221" y="4" width="76" height="76">
<path d="M258.672 4.16721C279.371 4.16721 296.177 20.9736 296.177 41.6722C296.177 62.3708 279.371 79.1772 258.672 79.1772C237.974 79.1772 221.167 62.3708 221.167 41.6722C221.167 20.9736 237.974 4.16721 258.672 4.16721Z" fill="#D9D9D9"/>
</mask>
<g mask="url(#mask12_1_303)">
<path d="M270.688 49.945C249.881 35.2428 228.728 33.0338 220.75 33.7653V71.3198H300.442V66.1268C299.194 66.8583 291.495 64.6471 270.688 49.945Z" fill="#94D75B"/>
</g>
<mask id="mask13_1_303" style="mask-type:alpha" maskUnits="userSpaceOnUse" x="221" y="4" width="76" height="76">
<path d="M258.672 4.16721C279.371 4.16721 296.177 20.9736 296.177 41.6722C296.177 62.3708 279.371 79.1772 258.672 79.1772C237.974 79.1772 221.167 62.3708 221.167 41.6722C221.167 20.9736 237.974 4.16721 258.672 4.16721Z" fill="#D9D9D9"/>
</mask>
<g mask="url(#mask13_1_303)">
<path d="M215.9 33.3175C223.548 34.7913 241.778 40.4294 248.436 43.369C259.073 48.0652 261.993 51.4101 262.826 52.6159C263.493 53.5804 271.726 53.5535 275.758 53.4204C269.64 49.1981 260.174 43.3337 256.571 41.6351C245.933 36.6208 225.077 31.0702 218.82 32.6793C213.815 33.9662 215.692 33.5856 215.9 33.3175Z" fill="#B0EB81"/>
</g>
<mask id="mask14_1_303" style="mask-type:alpha" maskUnits="userSpaceOnUse" x="221" y="4" width="76" height="76">
<path d="M258.672 4.16721C279.371 4.16721 296.177 20.9736 296.177 41.6722C296.177 62.3708 279.371 79.1772 258.672 79.1772C237.974 79.1772 221.167 62.3708 221.167 41.6722C221.167 20.9736 237.974 4.16721 258.672 4.16721Z" fill="#D9D9D9"/>
</mask>
<g mask="url(#mask14_1_303)">
<path d="M298.469 41.9139C290.481 41.1513 270.521 38.7441 248.463 51.209C226.065 63.8205 219.917 51.7984 218.667 51.0358V73.5036H298.469V41.9139Z" fill="#71BE63"/>
</g>
<mask id="mask15_1_303" style="mask-type:alpha" maskUnits="userSpaceOnUse" x="221" y="4" width="76" height="76">
<path d="M258.672 4.16721C279.371 4.16721 296.177 20.9736 296.177 41.6722C296.177 62.3708 279.371 79.1772 258.672 79.1772C237.974 79.1772 221.167 62.3708 221.167 41.6722C221.167 20.9736 237.974 4.16721 258.672 4.16721Z" fill="#D9D9D9"/>
</mask>
<g mask="url(#mask15_1_303)">
<path d="M271.174 42.0187C271.174 41.4436 271.641 40.9769 272.216 40.9769C272.791 40.9769 273.257 41.4436 273.257 42.0187V48.6862C273.257 49.2613 272.791 49.728 272.216 49.728C271.641 49.728 271.174 49.2613 271.174 48.6862V42.0187Z" fill="#674447"/>
</g>
<mask id="mask16_1_303" style="mask-type:alpha" maskUnits="userSpaceOnUse" x="221" y="4" width="76" height="76">
<path d="M258.672 4.16721C279.371 4.16721 296.177 20.9736 296.177 41.6722C296.177 62.3708 279.371 79.1772 258.672 79.1772C237.974 79.1772 221.167 62.3708 221.167 41.6722C221.167 20.9736 237.974 4.16721 258.672 4.16721Z" fill="#D9D9D9"/>
</mask>
<g mask="url(#mask16_1_303)">
<path d="M267.007 29.9337C267.007 27.2876 269.153 25.1414 271.799 25.1414C274.445 25.1414 276.591 27.2876 276.591 29.9337V37.018C276.591 39.6642 274.445 41.8103 271.799 41.8103C269.153 41.8103 267.007 39.6642 267.007 37.018V29.9337Z" fill="#43AB5F"/>
</g>
<mask id="mask17_1_303" style="mask-type:alpha" maskUnits="userSpaceOnUse" x="221" y="4" width="76" height="76">
<path d="M258.672 4.16721C279.371 4.16721 296.177 20.9736 296.177 41.6722C296.177 62.3708 279.371 79.1772 258.672 79.1772C237.974 79.1772 221.167 62.3708 221.167 41.6722C221.167 20.9736 237.974 4.16721 258.672 4.16721Z" fill="#D9D9D9"/>
</mask>
<g mask="url(#mask17_1_303)">
<path d="M272.841 28.6836C272.841 28.1085 273.307 27.6418 273.883 27.6418C274.458 27.6418 274.924 28.1085 274.924 28.6836V37.8515C274.924 38.4265 274.458 38.8933 273.883 38.8933C273.307 38.8933 272.841 38.4265 272.841 37.8515V28.6836Z" fill="#71BE63"/>
</g>
<mask id="mask18_1_303" style="mask-type:alpha" maskUnits="userSpaceOnUse" x="221" y="4" width="76" height="76">
<path d="M258.672 4.16721C279.371 4.16721 296.177 20.9736 296.177 41.6722C296.177 62.3708 279.371 79.1772 258.672 79.1772C237.974 79.1772 221.167 62.3708 221.167 41.6722C221.167 20.9736 237.974 4.16721 258.672 4.16721Z" fill="#D9D9D9"/>
</mask>
<g mask="url(#mask18_1_303)">
<path d="M298.469 43.1437C290.481 42.3811 269.299 42.7971 248.463 58.1324C228.404 72.8946 219.917 65.8856 218.667 65.123V80.4271H298.469V43.1437Z" fill="#43AB5F"/>
</g>
<mask id="mask19_1_303" style="mask-type:alpha" maskUnits="userSpaceOnUse" x="221" y="4" width="76" height="76">
<path d="M258.672 4.16721C279.371 4.16721 296.177 20.9736 296.177 41.6722C296.177 62.3708 279.371 79.1772 258.672 79.1772C237.974 79.1772 221.167 62.3708 221.167 41.6722C221.167 20.9736 237.974 4.16721 258.672 4.16721Z" fill="#D9D9D9"/>
</mask>
<g mask="url(#mask19_1_303)">
<path d="M274.397 69.8838C274.397 70.4589 273.93 70.9256 273.355 70.9256C272.78 70.9256 272.314 70.4589 272.314 69.8838C272.314 69.3087 272.78 68.842 273.355 68.842C273.93 68.842 274.397 69.3087 274.397 69.8838Z" fill="#B0EB81"/>
</g>
<mask id="mask20_1_303" style="mask-type:alpha" maskUnits="userSpaceOnUse" x="221" y="4" width="76" height="76">
<path d="M258.672 4.16721C279.371 4.16721 296.177 20.9736 296.177 41.6722C296.177 62.3708 279.371 79.1772 258.672 79.1772C237.974 79.1772 221.167 62.3708 221.167 41.6722C221.167 20.9736 237.974 4.16721 258.672 4.16721Z" fill="#D9D9D9"/>
</mask>
<g mask="url(#mask20_1_303)">
<path d="M279.398 58.2156C279.398 58.7906 278.931 59.2574 278.356 59.2574C277.781 59.2574 277.314 58.7906 277.314 58.2156C277.314 57.6405 277.781 57.1738 278.356 57.1738C278.931 57.1738 279.398 57.6405 279.398 58.2156Z" fill="#B0EB81"/>
</g>
<mask id="mask21_1_303" style="mask-type:alpha" maskUnits="userSpaceOnUse" x="221" y="4" width="76" height="76">
<path d="M258.672 4.16721C279.371 4.16721 296.177 20.9736 296.177 41.6722C296.177 62.3708 279.371 79.1772 258.672 79.1772C237.974 79.1772 221.167 62.3708 221.167 41.6722C221.167 20.9736 237.974 4.16721 258.672 4.16721Z" fill="#D9D9D9"/>
</mask>
<g mask="url(#mask21_1_303)">
<path d="M288.149 61.1326C288.149 61.7077 287.682 62.1744 287.107 62.1744C286.532 62.1744 286.065 61.7077 286.065 61.1326C286.065 60.5575 286.532 60.0908 287.107 60.0908C287.682 60.0908 288.149 60.5575 288.149 61.1326Z" fill="#B0EB81"/>
</g>
<mask id="mask22_1_303" style="mask-type:alpha" maskUnits="userSpaceOnUse" x="221" y="4" width="76" height="76">
<path d="M258.672 4.16721C279.371 4.16721 296.177 20.9736 296.177 41.6722C296.177 62.3708 279.371 79.1772 258.672 79.1772C237.974 79.1772 221.167 62.3708 221.167 41.6722C221.167 20.9736 237.974 4.16721 258.672 4.16721Z" fill="#D9D9D9"/>
</mask>
<g mask="url(#mask22_1_303)">
<path d="M266.479 73.2176C266.479 73.7927 266.013 74.2594 265.438 74.2594C264.863 74.2594 264.396 73.7927 264.396 73.2176C264.396 72.6425 264.863 72.1758 265.438 72.1758C266.013 72.1758 266.479 72.6425 266.479 73.2176Z" fill="#B0EB81"/>
</g>
<mask id="mask23_1_303" style="mask-type:alpha" maskUnits="userSpaceOnUse" x="221" y="4" width="76" height="76">
<path d="M258.672 4.16721C279.371 4.16721 296.177 20.9736 296.177 41.6722C296.177 62.3708 279.371 79.1772 258.672 79.1772C237.974 79.1772 221.167 62.3708 221.167 41.6722C221.167 20.9736 237.974 4.16721 258.672 4.16721Z" fill="#D9D9D9"/>
</mask>
<g mask="url(#mask23_1_303)">
<path d="M256.895 71.5507C256.895 72.1258 256.428 72.5925 255.853 72.5925C255.278 72.5925 254.811 72.1258 254.811 71.5507C254.811 70.9756 255.278 70.5089 255.853 70.5089C256.428 70.5089 256.895 70.9756 256.895 71.5507Z" fill="#B0EB81"/>
</g>
<mask id="mask24_1_303" style="mask-type:alpha" maskUnits="userSpaceOnUse" x="221" y="4" width="76" height="76">
<path d="M258.672 4.16721C279.371 4.16721 296.177 20.9736 296.177 41.6722C296.177 62.3708 279.371 79.1772 258.672 79.1772C237.974 79.1772 221.167 62.3708 221.167 41.6722C221.167 20.9736 237.974 4.16721 258.672 4.16721Z" fill="#D9D9D9"/>
</mask>
<g mask="url(#mask24_1_303)">
<path d="M245.643 64.4664C245.643 65.0415 245.177 65.5082 244.602 65.5082C244.026 65.5082 243.56 65.0415 243.56 64.4664C243.56 63.8913 244.026 63.4246 244.602 63.4246C245.177 63.4246 245.643 63.8913 245.643 64.4664Z" fill="#B0EB81"/>
</g>
<mask id="mask25_1_303" style="mask-type:alpha" maskUnits="userSpaceOnUse" x="221" y="4" width="76" height="76">
<path d="M258.672 4.16721C279.371 4.16721 296.177 20.9736 296.177 41.6722C296.177 62.3708 279.371 79.1772 258.672 79.1772C237.974 79.1772 221.167 62.3708 221.167 41.6722C221.167 20.9736 237.974 4.16721 258.672 4.16721Z" fill="#D9D9D9"/>
</mask>
<g mask="url(#mask25_1_303)">
<path d="M247.727 74.051C247.727 74.6261 247.26 75.0928 246.685 75.0928C246.11 75.0928 245.643 74.6261 245.643 74.051C245.643 73.4759 246.11 73.0092 246.685 73.0092C247.26 73.0092 247.727 73.4759 247.727 74.051Z" fill="#B0EB81"/>
</g>
<mask id="mask26_1_303" style="mask-type:alpha" maskUnits="userSpaceOnUse" x="221" y="4" width="76" height="76">
<path d="M258.672 4.16721C279.371 4.16721 296.177 20.9736 296.177 41.6722C296.177 62.3708 279.371 79.1772 258.672 79.1772C237.974 79.1772 221.167 62.3708 221.167 41.6722C221.167 20.9736 237.974 4.16721 258.672 4.16721Z" fill="#D9D9D9"/>
</mask>
<g mask="url(#mask26_1_303)">
<path d="M281.064 50.1598C281.064 50.7348 280.597 51.2016 280.022 51.2016C279.447 51.2016 278.98 50.7348 278.98 50.1598C278.98 49.5847 279.447 49.118 280.022 49.118C280.597 49.118 281.064 49.5847 281.064 50.1598Z" fill="#5EBB68"/>
</g>
<mask id="mask27_1_303" style="mask-type:alpha" maskUnits="userSpaceOnUse" x="221" y="4" width="76" height="76">
<path d="M258.672 4.16721C279.371 4.16721 296.177 20.9736 296.177 41.6722C296.177 62.3708 279.371 79.1772 258.672 79.1772C237.974 79.1772 221.167 62.3708 221.167 41.6722C221.167 20.9736 237.974 4.16721 258.672 4.16721Z" fill="#D9D9D9"/>
</mask>
<g mask="url(#mask27_1_303)">
<path d="M290.648 51.8266C290.648 52.4017 290.181 52.8684 289.606 52.8684C289.031 52.8684 288.565 52.4017 288.565 51.8266C288.565 51.2516 289.031 50.7848 289.606 50.7848C290.181 50.7848 290.648 51.2516 290.648 51.8266Z" fill="#5EBB68"/>
</g>
<mask id="mask28_1_303" style="mask-type:alpha" maskUnits="userSpaceOnUse" x="221" y="4" width="76" height="76">
<path d="M258.672 4.16721C279.371 4.16721 296.177 20.9736 296.177 41.6722C296.177 62.3708 279.371 79.1772 258.672 79.1772C237.974 79.1772 221.167 62.3708 221.167 41.6722C221.167 20.9736 237.974 4.16721 258.672 4.16721Z" fill="#D9D9D9"/>
</mask>
<g mask="url(#mask28_1_303)">
<path d="M273.979 54.7437C273.979 55.3188 273.513 55.7855 272.937 55.7855C272.362 55.7855 271.896 55.3188 271.896 54.7437C271.896 54.1686 272.362 53.7019 272.937 53.7019C273.513 53.7019 273.979 54.1686 273.979 54.7437Z" fill="#5EBB68"/>
</g>
<mask id="mask29_1_303" style="mask-type:alpha" maskUnits="userSpaceOnUse" x="221" y="4" width="76" height="76">
<path d="M258.672 4.16721C279.371 4.16721 296.177 20.9736 296.177 41.6722C296.177 62.3708 279.371 79.1772 258.672 79.1772C237.974 79.1772 221.167 62.3708 221.167 41.6722C221.167 20.9736 237.974 4.16721 258.672 4.16721Z" fill="#D9D9D9"/>
</mask>
<g mask="url(#mask29_1_303)">
<path d="M265.645 56.4106C265.645 56.9857 265.178 57.4524 264.603 57.4524C264.028 57.4524 263.561 56.9857 263.561 56.4106C263.561 55.8355 264.028 55.3688 264.603 55.3688C265.178 55.3688 265.645 55.8355 265.645 56.4106Z" fill="#5EBB68"/>
</g>
<mask id="mask30_1_303" style="mask-type:alpha" maskUnits="userSpaceOnUse" x="221" y="4" width="76" height="76">
<path d="M258.672 4.16721C279.371 4.16721 296.177 20.9736 296.177 41.6722C296.177 62.3708 279.371 79.1772 258.672 79.1772C237.974 79.1772 221.167 62.3708 221.167 41.6722C221.167 20.9736 237.974 4.16721 258.672 4.16721Z" fill="#D9D9D9"/>
</mask>
<g mask="url(#mask30_1_303)">
<path d="M262.311 65.1617C262.311 65.7368 261.844 66.2035 261.269 66.2035C260.694 66.2035 260.227 65.7368 260.227 65.1617C260.227 64.5867 260.694 64.1199 261.269 64.1199C261.844 64.1199 262.311 64.5867 262.311 65.1617Z" fill="#5EBB68"/>
</g>
<mask id="mask31_1_303" style="mask-type:alpha" maskUnits="userSpaceOnUse" x="221" y="4" width="76" height="76">
<path d="M258.672 4.16721C279.371 4.16721 296.177 20.9736 296.177 41.6722C296.177 62.3708 279.371 79.1772 258.672 79.1772C237.974 79.1772 221.167 62.3708 221.167 41.6722C221.167 20.9736 237.974 4.16721 258.672 4.16721Z" fill="#D9D9D9"/>
</mask>
<g mask="url(#mask31_1_303)">
<path d="M271.896 62.2447C271.896 62.8198 271.429 63.2865 270.854 63.2865C270.279 63.2865 269.812 62.8198 269.812 62.2447C269.812 61.6696 270.279 61.2029 270.854 61.2029C271.429 61.2029 271.896 61.6696 271.896 62.2447Z" fill="#5EBB68"/>
</g>
<mask id="mask32_1_303" style="mask-type:alpha" maskUnits="userSpaceOnUse" x="221" y="4" width="76" height="76">
<path d="M258.672 4.16721C279.371 4.16721 296.177 20.9736 296.177 41.6722C296.177 62.3708 279.371 79.1772 258.672 79.1772C237.974 79.1772 221.167 62.3708 221.167 41.6722C221.167 20.9736 237.974 4.16721 258.672 4.16721Z" fill="#D9D9D9"/>
</mask>
<g mask="url(#mask32_1_303)">
<path d="M256.894 60.9945C256.894 61.5696 256.427 62.0363 255.852 62.0363C255.277 62.0363 254.81 61.5696 254.81 60.9945C254.81 60.4195 255.277 59.9527 255.852 59.9527C256.427 59.9527 256.894 60.4195 256.894 60.9945Z" fill="#5EBB68"/>
</g>
</g>
<path d="M22.232 61.248C22.104 61.248 21.96 61.2 21.8 61.104C20.904 60.848 20.296 60.256 19.976 59.328C19.72 58.496 19.592 57.632 19.592 56.736C19.592 55.264 19.832 53.616 20.312 51.792C20.696 50.256 21.16 48.736 21.704 47.232C22.216 45.76 22.744 44.368 23.288 43.056C23.864 41.712 24.36 40.592 24.776 39.696C25.704 37.744 26.648 35.856 27.608 34.032C28.568 32.176 29.48 30.48 30.344 28.944C32.104 25.84 33.496 23.648 34.52 22.368C33.304 22.144 32.056 21.968 30.776 21.84C29.496 21.68 28.136 21.6 26.696 21.6C23.816 21.6 21.144 21.984 18.68 22.752C16.216 23.488 14.136 24.496 12.44 25.776C11.384 26.576 10.616 27.36 10.136 28.128C9.656 28.864 9.416 29.536 9.416 30.144C9.416 30.88 9.752 31.456 10.424 31.872C11.128 32.288 12.088 32.496 13.304 32.496C15.832 32.496 18.152 32.144 20.264 31.44C22.376 30.736 24.456 29.744 26.504 28.464C26.568 28.4 26.664 28.368 26.792 28.368C26.888 28.368 26.936 28.4 26.936 28.464C26.968 28.528 26.904 28.624 26.744 28.752C25.528 29.68 24.056 30.576 22.328 31.44C20.6 32.272 18.776 32.944 16.856 33.456C14.936 33.968 13.048 34.224 11.192 34.224C10.968 34.224 10.744 34.224 10.52 34.224C10.296 34.224 10.072 34.208 9.848 34.176C8.952 34.112 8.088 33.792 7.256 33.216C6.424 32.64 6.008 31.936 6.008 31.104C6.008 29.76 6.424 28.544 7.256 27.456C7.992 26.432 8.952 25.536 10.136 24.768C11.352 24 12.744 23.344 14.312 22.8C15.88 22.288 17.496 21.872 19.16 21.552C20.824 21.232 22.488 21.008 24.152 20.88C25.848 20.72 27.432 20.64 28.904 20.64C31.336 20.64 33.64 20.8 35.816 21.12C36.328 20.768 36.84 20.512 37.352 20.352C37.896 20.16 38.376 20.064 38.792 20.064C39.24 20.064 39.608 20.144 39.896 20.304C40.184 20.464 40.328 20.72 40.328 21.072C40.328 21.36 40.248 21.632 40.088 21.888C41.176 22.112 42.344 22.384 43.592 22.704C44.872 23.024 46.104 23.328 47.288 23.616C48.504 23.904 49.592 24.128 50.552 24.288C50.84 24.352 51.288 24.448 51.896 24.576C52.536 24.672 53.224 24.768 53.96 24.864C54.728 24.96 55.416 25.008 56.024 25.008C56.472 25.008 56.84 24.976 57.128 24.912C57.448 24.816 57.624 24.672 57.656 24.48C57.688 24.032 57.512 23.568 57.128 23.088C56.744 22.576 56.264 22.144 55.688 21.792C55.112 21.44 54.568 21.264 54.056 21.264C53.96 21.264 53.912 21.248 53.912 21.216C53.912 21.184 53.96 21.152 54.056 21.12C54.216 21.088 54.488 21.12 54.872 21.216C55.288 21.28 55.688 21.376 56.072 21.504C56.488 21.6 56.792 21.664 56.984 21.696C58.04 22.112 58.568 22.768 58.568 23.664C58.568 24.144 58.376 24.608 57.992 25.056C57.8 25.312 57.592 25.568 57.368 25.824C57.144 26.048 56.904 26.224 56.648 26.352C56.136 26.544 55.576 26.688 54.968 26.784C54.392 26.848 53.784 26.88 53.144 26.88C51.608 26.88 49.944 26.704 48.152 26.352C46.392 25.968 44.664 25.52 42.968 25.008C41.304 24.464 39.848 23.968 38.6 23.52C37.96 24.32 37.384 25.04 36.872 25.68C36.392 26.288 35.912 26.928 35.432 27.6C34.952 28.24 34.424 29.024 33.848 29.952C32.632 31.872 31.416 33.92 30.2 36.096C28.984 38.24 27.848 40.448 26.792 42.72C25.704 45.024 24.744 47.36 23.912 49.728C23.08 52.096 22.472 54.432 22.088 56.736C21.896 57.824 21.8 58.752 21.8 59.52C21.8 60.288 21.928 60.8 22.184 61.056C22.28 61.184 22.296 61.248 22.232 61.248ZM45.1644 60.528C44.2364 60.528 43.5964 60.272 43.2444 59.76C42.8924 59.28 42.7164 58.576 42.7164 57.648C42.7164 56.624 42.9884 55.456 43.5324 54.144C44.0764 52.864 44.7164 51.6 45.4524 50.352C46.1884 49.072 46.8604 47.952 47.4684 46.992C47.5964 46.8 47.8204 46.448 48.1404 45.936C48.4604 45.392 48.8284 44.784 49.2444 44.112C49.6604 43.44 50.0444 42.816 50.3964 42.24C50.7484 41.632 51.0044 41.152 51.1644 40.8C51.6124 39.904 51.8364 39.248 51.8364 38.832C51.8364 38.576 51.7404 38.448 51.5484 38.448C51.0684 38.448 50.0764 39.104 48.5724 40.416C47.9964 40.96 47.2764 41.68 46.4124 42.576C45.5484 43.472 44.6364 44.464 43.6764 45.552C42.7484 46.608 41.8684 47.712 41.0364 48.864C40.2364 50.016 39.5964 51.12 39.1164 52.176C38.9244 52.592 38.7004 52.896 38.4444 53.088C38.2204 53.248 37.9964 53.328 37.7724 53.328C37.2284 53.328 36.9564 53.024 36.9564 52.416C36.9564 52.192 37.0044 51.968 37.1004 51.744C37.4204 50.848 37.8844 49.68 38.4924 48.24C39.1004 46.768 39.7564 45.2 40.4604 43.536C41.1644 41.872 41.8524 40.272 42.5244 38.736C43.2284 37.2 43.8204 35.904 44.3004 34.848C43.6284 35.04 43.0204 35.2 42.4764 35.328C41.9324 35.456 41.4524 35.52 41.0364 35.52C40.7804 35.52 40.6044 35.504 40.5084 35.472C40.1564 35.376 39.9804 35.28 39.9804 35.184C39.9804 35.088 40.1884 35.024 40.6044 34.992C41.0844 34.992 41.6764 34.912 42.3804 34.752C43.0844 34.56 43.8524 34.32 44.6844 34.032C45.1964 32.912 45.8044 31.648 46.5084 30.24C47.2124 28.832 48.0124 27.408 48.9084 25.968C49.8044 24.528 50.7804 23.12 51.8364 21.744C52.8924 20.368 54.0444 19.152 55.2924 18.096C56.5404 17.04 57.8684 16.192 59.2764 15.552C60.6844 14.88 62.1724 14.544 63.7404 14.544C64.5724 14.544 65.2284 14.816 65.7084 15.36C66.1884 15.872 66.4284 16.608 66.4284 17.568C66.4284 18.464 66.1404 19.408 65.5644 20.4C64.9884 21.424 64.2044 22.448 63.2124 23.472C62.2204 24.464 61.0844 25.456 59.8044 26.448C58.4924 27.44 57.1324 28.384 55.7244 29.28C54.3164 30.176 52.8764 31.008 51.4044 31.776C49.9324 32.544 48.5404 33.2 47.2284 33.744C46.1404 35.92 45.1004 38.128 44.1084 40.368C43.1164 42.576 42.2204 44.688 41.4204 46.704C41.6444 46.384 42.0444 45.888 42.6204 45.216C43.1964 44.544 43.8364 43.824 44.5404 43.056C45.2444 42.288 45.8844 41.616 46.4604 41.04C47.1004 40.432 47.8204 39.808 48.6204 39.168C49.4524 38.496 50.2524 37.952 51.0204 37.536C51.8204 37.088 52.5244 36.864 53.1324 36.864C53.7724 36.864 54.2204 36.992 54.4764 37.248C54.7644 37.504 54.9084 37.856 54.9084 38.304C54.9084 38.976 54.6844 39.76 54.2364 40.656C53.8204 41.552 53.3884 42.384 52.9404 43.152C52.7164 43.568 52.3164 44.208 51.7404 45.072C51.1964 45.936 50.6204 46.832 50.0124 47.76C49.4044 48.688 48.9244 49.44 48.5724 50.016C48.0924 50.72 47.5804 51.52 47.0364 52.416C46.5244 53.312 46.0604 54.16 45.6444 54.96C45.2604 55.792 45.0364 56.432 44.9724 56.88C44.9404 57.072 44.9084 57.232 44.8764 57.36C44.8764 57.52 44.8764 57.68 44.8764 57.84C44.8764 58.608 45.1644 58.992 45.7404 58.992C46.0284 58.992 46.3164 58.928 46.6044 58.8C46.9244 58.704 47.3724 58.4 47.9484 57.888C48.5564 57.408 49.1804 56.832 49.8204 56.16C50.4604 55.52 51.0684 54.88 51.6444 54.24C52.2204 53.632 52.6524 53.152 52.9404 52.8L56.4924 48.672C56.6524 48.48 56.8124 48.304 56.9724 48.144C57.1644 47.952 57.3404 47.76 57.5004 47.568C57.7884 47.184 58.0924 46.816 58.4124 46.464C58.5084 46.368 58.6044 46.32 58.7004 46.32C58.8924 46.32 58.9884 46.432 58.9884 46.656C58.9884 46.784 58.9084 46.96 58.7484 47.184C58.3964 47.632 58.0124 48.096 57.5964 48.576C57.2124 49.056 56.8444 49.504 56.4924 49.92C56.2364 50.24 55.8364 50.736 55.2924 51.408C54.7804 52.08 54.2204 52.8 53.6124 53.568C53.0044 54.336 52.4284 55.024 51.8844 55.632C51.2444 56.336 50.5244 57.072 49.7244 57.84C48.9244 58.608 48.1244 59.248 47.3244 59.76C46.5244 60.272 45.8044 60.528 45.1644 60.528ZM47.8044 32.688C49.0524 32.112 50.3484 31.44 51.6924 30.672C53.0044 29.936 54.3004 29.152 55.5804 28.32C56.8604 27.456 58.0764 26.56 59.2284 25.632C60.3484 24.736 61.3404 23.808 62.2044 22.848C63.1004 21.888 63.7884 20.96 64.2684 20.064C64.7484 19.136 64.9884 18.24 64.9884 17.376C64.9884 17.088 64.9244 16.8 64.7964 16.512C64.6684 16.224 64.2844 16.08 63.6444 16.08C62.6524 16.08 61.6444 16.352 60.6204 16.896C59.5964 17.408 58.5884 18.096 57.5964 18.96C56.6364 19.792 55.7404 20.688 54.9084 21.648C54.0764 22.576 53.3564 23.456 52.7484 24.288C51.1484 26.464 49.5004 29.264 47.8044 32.688ZM59.9236 60.912C58.6756 60.912 57.7156 60.4 57.0436 59.376C56.3716 58.384 56.0356 56.96 56.0356 55.104C56.0356 54.784 56.0516 54.464 56.0836 54.144C56.0836 53.824 56.0996 53.488 56.1316 53.136C56.3236 51.568 56.8036 49.856 57.5716 48C58.3716 46.144 59.5876 44.16 61.2196 42.048C62.3076 40.64 63.4916 39.584 64.7716 38.88C66.0516 38.176 67.2836 37.824 68.4676 37.824C69.2996 37.824 70.0356 37.984 70.6756 38.304C71.4436 38.72 71.8276 39.472 71.8276 40.56C71.8276 41.36 71.5396 42.256 70.9636 43.248C70.3876 44.208 69.4116 45.136 68.0356 46.032C66.2116 47.184 64.6916 47.952 63.4756 48.336C62.2596 48.72 61.2836 48.928 60.5476 48.96C60.2916 49.312 60.0356 49.872 59.7796 50.64C59.5236 51.376 59.2996 52.16 59.1076 52.992C58.9476 53.792 58.8356 54.512 58.7716 55.152C58.7716 55.28 58.7556 55.408 58.7236 55.536C58.7236 55.696 58.7236 55.856 58.7236 56.016C58.7236 56.976 58.8836 57.792 59.2036 58.464C59.5556 59.168 60.1636 59.52 61.0276 59.52C61.7956 59.52 62.6596 59.232 63.6196 58.656C64.5796 58.112 65.5236 57.44 66.4516 56.64C67.4116 55.872 68.2436 55.12 68.9476 54.384C69.6836 53.68 70.1956 53.152 70.4836 52.8L74.0356 48.672L75.9556 46.464C76.0516 46.368 76.1316 46.32 76.1956 46.32C76.3876 46.32 76.4836 46.448 76.4836 46.704C76.4836 46.8 76.4036 46.96 76.2436 47.184C75.9236 47.632 75.5556 48.096 75.1396 48.576C74.7556 49.056 74.3876 49.504 74.0356 49.92C73.5876 50.432 73.0276 51.088 72.3556 51.888C71.7156 52.688 71.0276 53.52 70.2916 54.384C69.5876 55.248 68.8996 56 68.2276 56.64C67.0116 57.824 65.6996 58.832 64.2916 59.664C62.9156 60.496 61.4596 60.912 59.9236 60.912ZM60.9796 48.192C61.4276 48.16 61.9876 47.984 62.6596 47.664C63.3316 47.344 64.0356 46.96 64.7716 46.512C65.5076 46.064 66.1796 45.616 66.7876 45.168C67.4276 44.688 67.9396 44.288 68.3236 43.968C69.0596 43.392 69.6036 42.752 69.9556 42.048C70.3076 41.344 70.4836 40.736 70.4836 40.224C70.4836 39.872 70.3876 39.568 70.1956 39.312C70.0356 39.056 69.7796 38.928 69.4276 38.928C68.7556 38.928 68.0196 39.264 67.2196 39.936C66.4516 40.576 65.6676 41.408 64.8676 42.432C64.0996 43.424 63.3636 44.448 62.6596 45.504C61.9876 46.528 61.4276 47.424 60.9796 48.192ZM86.4271 63.936C85.4031 63.936 84.5231 63.424 83.7871 62.4C83.4671 61.952 83.3071 61.36 83.3071 60.624C83.3071 59.824 83.4671 58.944 83.7871 57.984C84.1071 57.056 84.5071 56.112 84.9871 55.152C85.4991 54.192 86.0111 53.296 86.5231 52.464C87.0351 51.632 87.4831 50.928 87.8671 50.352C88.5391 49.232 89.4031 47.904 90.4591 46.368C91.5151 44.832 92.5871 43.28 93.6751 41.712C94.7951 40.144 95.7711 38.736 96.6031 37.488C98.1071 35.216 99.4831 32.96 100.731 30.72C101.979 28.448 102.907 26.256 103.515 24.144C103.739 24.016 104.027 23.888 104.379 23.76C104.731 23.6 105.035 23.536 105.291 23.568C105.771 23.76 106.043 24.064 106.107 24.48L106.779 24.432C107.451 24.464 107.787 24.8 107.787 25.44C107.787 25.632 107.755 25.856 107.691 26.112C107.627 26.336 107.547 26.576 107.451 26.832C107.163 27.44 106.811 28.368 106.395 29.616C106.011 30.832 105.595 32.224 105.147 33.792C104.731 35.36 104.331 36.96 103.947 38.592C103.563 40.224 103.259 41.728 103.035 43.104C102.811 44.32 102.619 45.552 102.459 46.8C102.331 48.048 102.267 49.232 102.267 50.352C102.267 52.08 102.475 53.536 102.891 54.72C103.339 55.904 104.123 56.496 105.243 56.496C105.947 56.496 106.795 56.048 107.787 55.152C108.811 54.256 109.883 53.04 111.003 51.504C112.155 49.968 113.323 48.176 114.507 46.128C115.659 44.112 116.731 42 117.723 39.792C118.683 37.584 119.515 35.376 120.219 33.168C120.923 30.928 121.387 28.832 121.611 26.88C121.643 26.496 121.675 26.048 121.707 25.536C121.739 25.024 121.755 24.496 121.755 23.952C121.755 23.504 121.739 23.072 121.707 22.656C121.675 22.24 121.627 21.856 121.563 21.504C121.275 20.192 120.683 19.536 119.787 19.536C119.275 19.536 118.619 19.808 117.819 20.352C117.563 20.544 117.435 20.56 117.435 20.4C117.435 20.24 117.515 20.032 117.675 19.776C118.059 19.52 118.507 19.232 119.019 18.912C119.563 18.592 120.123 18.432 120.699 18.432C122.299 18.432 123.451 18.96 124.155 20.016C124.891 21.072 125.259 22.368 125.259 23.904C125.259 25.664 124.939 27.712 124.299 30.048C123.659 32.352 122.827 34.768 121.803 37.296C120.907 39.504 119.899 41.712 118.779 43.92C117.659 46.096 116.475 48.128 115.227 50.016C114.363 51.328 113.355 52.56 112.203 53.712C111.083 54.832 109.915 55.728 108.699 56.4C107.483 57.104 106.347 57.456 105.291 57.456C104.107 57.456 103.211 57.04 102.603 56.208C101.931 55.376 101.451 54.272 101.163 52.896C100.875 51.488 100.731 49.888 100.731 48.096C100.731 47.328 100.747 46.544 100.779 45.744C100.843 44.912 100.923 44.08 101.019 43.248C101.179 41.424 101.419 39.6 101.739 37.776C102.059 35.92 102.395 34.192 102.747 32.592C102.267 33.328 101.611 34.24 100.779 35.328C99.9791 36.416 99.1311 37.552 98.2351 38.736C97.3711 39.92 96.5871 40.976 95.8831 41.904C94.5391 43.76 93.1471 45.76 91.7071 47.904C90.2671 50.048 88.8431 52.368 87.4351 54.864C87.2751 55.152 87.0191 55.568 86.6671 56.112C86.3471 56.688 86.0111 57.296 85.6591 57.936C85.3071 58.608 85.0031 59.264 84.7471 59.904C84.5231 60.544 84.4111 61.072 84.4111 61.488C84.4111 61.872 84.5391 62.112 84.7951 62.208C85.0191 62.336 85.2911 62.4 85.6111 62.4C86.1871 62.4 86.8271 62.224 87.5311 61.872C88.2351 61.52 88.9391 61.12 89.6431 60.672C90.3791 60.256 91.0511 59.92 91.6591 59.664C91.6911 59.632 91.7391 59.616 91.8031 59.616C91.7071 59.616 91.4511 59.824 91.0351 60.24C90.6191 60.688 90.2031 61.152 89.7871 61.632C89.3711 62.112 89.0831 62.464 88.9231 62.688C88.1871 63.52 87.3551 63.936 86.4271 63.936ZM87.8191 37.392C87.4671 37.392 86.9551 37.248 86.2831 36.96C85.6431 36.672 85.0511 36.24 84.5071 35.664C83.9951 35.088 83.7391 34.4 83.7391 33.6C83.7391 32.736 83.8991 31.936 84.2191 31.2C84.5711 30.464 85.0511 29.776 85.6591 29.136C86.8111 27.984 88.2191 27.008 89.8831 26.208C91.5791 25.408 93.4191 24.784 95.4031 24.336C97.3551 23.888 99.2111 23.536 100.971 23.28C102.411 23.056 103.835 22.912 105.243 22.848C106.651 22.752 107.611 22.688 108.123 22.656H108.267C108.619 22.656 108.795 22.72 108.795 22.848C108.795 23.072 108.507 23.184 107.931 23.184C107.323 23.184 106.683 23.2 106.011 23.232C105.339 23.232 104.619 23.28 103.851 23.376C102.411 23.6 100.923 23.936 99.3871 24.384C97.8831 24.832 96.4111 25.392 94.9711 26.064C93.4991 26.736 92.1871 27.504 91.0351 28.368C89.8511 29.264 88.8751 30.256 88.1071 31.344C87.3711 32.432 86.9551 33.6 86.8591 34.848C86.8271 34.944 86.8111 35.12 86.8111 35.376C86.8111 35.696 86.8911 36.032 87.0511 36.384C87.2431 36.704 87.5471 36.928 87.9631 37.056C88.1231 37.184 88.1711 37.28 88.1071 37.344C88.0431 37.408 87.9471 37.424 87.8191 37.392ZM131.5 54.192C130.22 54.192 129.58 53.36 129.58 51.696C129.58 51.12 129.676 50.48 129.868 49.776C129.932 49.552 130.076 49.184 130.3 48.672C130.524 48.16 130.78 47.6 131.068 46.992C131.356 46.352 131.628 45.76 131.884 45.216C132.14 44.64 132.316 44.192 132.412 43.872C131.74 44.896 130.988 45.92 130.156 46.944C129.356 47.936 128.492 48.768 127.564 49.44C126.636 50.112 125.644 50.448 124.588 50.448C123.596 50.416 122.892 50.144 122.476 49.632C122.06 49.12 121.852 48.496 121.852 47.76C121.852 46.896 122.044 45.952 122.428 44.928C122.812 43.904 123.244 42.992 123.724 42.192C124.556 40.88 125.564 39.6 126.748 38.352C127.932 37.104 129.196 36.08 130.54 35.28C131.884 34.448 133.164 34.032 134.38 34.032C135.02 34.032 135.644 34.144 136.252 34.368C136.86 34.56 137.468 34.896 138.076 35.376C138.556 35.76 138.796 36.176 138.796 36.624C138.796 37.072 138.604 37.296 138.22 37.296C137.932 37.296 137.724 37.104 137.596 36.72C137.18 35.632 136.508 35.088 135.58 35.088C134.748 35.088 133.82 35.456 132.796 36.192C131.772 36.928 130.764 37.808 129.772 38.832C128.652 39.952 127.66 41.184 126.796 42.528C125.932 43.872 125.276 45.088 124.828 46.176C124.412 47.168 124.204 47.904 124.204 48.384C124.204 48.992 124.444 49.296 124.924 49.296C125.468 49.296 126.268 48.88 127.324 48.048C128.028 47.504 128.796 46.8 129.628 45.936C130.46 45.04 131.244 44.16 131.98 43.296C132.716 42.432 133.292 41.76 133.708 41.28C134.06 40.736 134.348 40.304 134.572 39.984C134.7 39.792 134.908 39.648 135.196 39.552C135.484 39.456 135.788 39.408 136.108 39.408C136.492 39.408 136.812 39.488 137.068 39.648C137.324 39.776 137.388 39.984 137.26 40.272C137.132 40.56 136.844 41.12 136.396 41.952C135.98 42.752 135.5 43.664 134.956 44.688C134.444 45.712 133.948 46.688 133.468 47.616C133.02 48.544 132.684 49.264 132.46 49.776C132.012 50.768 131.788 51.504 131.788 51.984C131.788 52.4 131.948 52.608 132.268 52.608C132.492 52.608 132.828 52.48 133.276 52.224C133.98 51.872 134.684 51.376 135.388 50.736C136.092 50.064 136.764 49.36 137.404 48.624C137.756 48.272 138.076 47.936 138.364 47.616C138.652 47.296 138.924 46.96 139.18 46.608C139.276 46.512 139.356 46.464 139.42 46.464C139.612 46.464 139.708 46.608 139.708 46.896C139.708 47.056 139.644 47.2 139.516 47.328C139.164 47.776 138.812 48.208 138.46 48.624C138.108 49.04 137.74 49.456 137.356 49.872C137.004 50.288 136.636 50.704 136.252 51.12C135.9 51.504 135.532 51.872 135.148 52.224C134.444 52.896 133.772 53.392 133.132 53.712C132.524 54.032 131.98 54.192 131.5 54.192ZM138.959 62.448C138.351 62.448 137.823 62.192 137.375 61.68C136.927 61.168 136.703 60.368 136.703 59.28C136.703 58.672 136.767 58.048 136.895 57.408C136.959 57.088 137.087 56.464 137.279 55.536C137.471 54.608 137.695 53.664 137.951 52.704C138.239 51.52 138.639 50.176 139.151 48.672C139.663 47.136 140.287 45.52 141.023 43.824C141.567 42.48 142.127 41.216 142.703 40.032C143.279 38.848 143.855 37.696 144.431 36.576H137.807C137.455 36.576 137.279 36.496 137.279 36.336C137.279 35.984 137.631 35.808 138.335 35.808H144.863C145.663 34.368 146.495 33.008 147.359 31.728C148.223 30.448 149.183 29.248 150.239 28.128C150.783 27.488 151.279 27.04 151.727 26.784C152.207 26.528 152.687 26.352 153.167 26.256C153.679 26.128 154.239 26 154.847 25.872C153.375 27.664 152.079 29.36 150.959 30.96C149.871 32.528 148.847 34.144 147.887 35.808H154.991C155.375 35.808 155.567 35.904 155.567 36.096C155.567 36.192 155.471 36.304 155.279 36.432C155.119 36.528 154.863 36.576 154.511 36.576H147.455C146.687 37.92 145.951 39.344 145.247 40.848C144.543 42.32 143.791 43.936 142.991 45.696C142.319 47.168 141.711 48.752 141.167 50.448C140.655 52.112 140.239 53.648 139.919 55.056C139.599 56.464 139.439 57.472 139.439 58.08C139.439 59.552 139.839 60.288 140.639 60.288C141.023 60.288 141.503 60.096 142.079 59.712C143.327 58.944 144.447 58.144 145.439 57.312C146.431 56.512 147.375 55.664 148.271 54.768C148.751 54.32 149.311 53.744 149.951 53.04C150.623 52.336 151.295 51.616 151.967 50.88C152.639 50.144 153.231 49.488 153.743 48.912L154.559 48C154.655 47.904 154.735 47.856 154.799 47.856C154.991 47.856 155.087 47.984 155.087 48.24C155.087 48.4 155.023 48.56 154.895 48.72C154.735 48.976 154.559 49.216 154.367 49.44C154.143 49.664 153.935 49.904 153.743 50.16C152.367 51.856 150.847 53.568 149.183 55.296C147.519 57.024 145.807 58.608 144.047 60.048C143.311 60.624 142.543 61.168 141.743 61.68C140.943 62.192 140.015 62.448 138.959 62.448ZM164.246 54.144C163.606 54.144 163.142 53.936 162.854 53.52C162.566 53.104 162.422 52.544 162.422 51.84C162.422 51.008 162.582 50.016 162.902 48.864C163.254 47.68 163.67 46.48 164.15 45.264C163.702 45.968 163.174 46.736 162.566 47.568C161.958 48.4 161.318 49.184 160.646 49.92C159.974 50.656 159.302 51.264 158.63 51.744C157.99 52.224 157.398 52.464 156.854 52.464C155.958 52.464 155.334 52.16 154.982 51.552C154.662 50.944 154.502 50.24 154.502 49.44C154.502 48.928 154.534 48.432 154.598 47.952C154.694 47.44 154.806 46.992 154.934 46.608C155.51 44.976 156.262 43.264 157.19 41.472C158.118 39.648 159.126 37.904 160.214 36.24C161.334 34.576 162.47 33.136 163.622 31.92C164.39 31.152 164.966 30.768 165.35 30.768C165.542 30.768 165.638 30.88 165.638 31.104C165.638 31.328 165.526 31.648 165.302 32.064C165.11 32.48 164.79 32.96 164.342 33.504C163.99 33.92 163.51 34.688 162.902 35.808C162.294 36.896 161.638 38.144 160.934 39.552C160.23 40.928 159.558 42.304 158.918 43.68C158.31 45.056 157.798 46.256 157.382 47.28C157.126 47.888 156.934 48.432 156.806 48.912C156.71 49.392 156.662 49.792 156.662 50.112C156.662 50.88 156.918 51.264 157.43 51.264C158.102 51.264 158.966 50.64 160.022 49.392C160.278 49.072 160.646 48.592 161.126 47.952C161.606 47.28 162.118 46.56 162.662 45.792C163.238 44.992 163.782 44.224 164.294 43.488C164.806 42.752 165.222 42.144 165.542 41.664L166.646 39.648C166.806 39.328 167.126 39.072 167.606 38.88C168.118 38.656 168.582 38.544 168.998 38.544C169.286 38.544 169.43 38.688 169.43 38.976C169.43 39.328 169.35 39.696 169.19 40.08C169.062 40.432 168.87 40.816 168.614 41.232C168.134 42 167.67 42.912 167.222 43.968C166.774 45.024 166.374 46.048 166.022 47.04C165.702 48.032 165.494 48.816 165.398 49.392C165.27 49.936 165.206 50.48 165.206 51.024C165.206 51.152 165.206 51.28 165.206 51.408C165.238 51.536 165.27 51.648 165.302 51.744C165.366 52.16 165.526 52.368 165.782 52.368C165.91 52.368 166.07 52.32 166.262 52.224C166.966 51.872 167.67 51.376 168.374 50.736C169.078 50.064 169.75 49.36 170.39 48.624C170.71 48.272 171.014 47.936 171.302 47.616C171.59 47.296 171.862 46.96 172.118 46.608C172.214 46.512 172.294 46.464 172.358 46.464C172.55 46.464 172.646 46.592 172.646 46.848C172.646 47.04 172.582 47.2 172.454 47.328L170.342 49.872C169.99 50.288 169.622 50.704 169.238 51.12C168.854 51.504 168.486 51.872 168.134 52.224C167.494 52.832 166.822 53.312 166.118 53.664C165.414 53.984 164.79 54.144 164.246 54.144ZM174.935 62.064C173.943 62.064 173.223 61.808 172.775 61.296C172.359 60.816 172.151 60.176 172.151 59.376C172.151 58.864 172.247 58.256 172.439 57.552C172.695 56.464 173.127 55.28 173.735 54C174.375 52.752 174.935 51.76 175.415 51.024C175.799 50.448 176.183 49.856 176.567 49.248C176.951 48.64 177.351 48.016 177.767 47.376L180.119 43.632C180.567 42.928 180.791 42.224 180.791 41.52C180.791 40.752 180.487 40.16 179.879 39.744L179.207 39.312C178.951 39.152 178.759 39.008 178.631 38.88L177.959 39.984L177.287 41.04C176.615 41.968 175.847 42.992 174.983 44.112C174.119 45.232 173.287 46.304 172.487 47.328C171.687 48.352 171.015 49.168 170.471 49.776C170.375 49.872 170.279 49.92 170.183 49.92C170.023 49.92 169.911 49.84 169.847 49.68C169.751 49.52 169.767 49.376 169.895 49.248C171.143 47.84 172.343 46.4 173.495 44.928C174.679 43.424 175.751 41.856 176.711 40.224L177.287 39.264L177.863 38.256C177.607 38.096 177.367 37.808 177.143 37.392C176.919 36.944 176.807 36.528 176.807 36.144C176.807 35.6 177.031 35.28 177.479 35.184H177.527C177.847 35.184 178.167 35.376 178.487 35.76C178.807 36.208 178.951 37.024 178.919 38.208C179.687 38.784 180.439 39.168 181.175 39.36C181.911 39.552 182.503 39.792 182.951 40.08C183.431 40.336 183.671 40.848 183.671 41.616C183.671 41.744 183.655 41.888 183.623 42.048C183.623 42.208 183.607 42.368 183.575 42.528C183.415 43.296 182.999 44.24 182.327 45.36C181.687 46.48 180.967 47.632 180.167 48.816C179.367 49.968 178.679 50.976 178.103 51.84C177.527 52.768 176.919 53.776 176.279 54.864C175.639 55.984 175.111 57.04 174.695 58.032C174.311 59.024 174.183 59.808 174.311 60.384C174.407 60.704 174.631 60.864 174.983 60.864C175.495 60.864 176.119 60.656 176.855 60.24C177.847 59.664 178.759 59.04 179.591 58.368C180.423 57.728 181.287 56.96 182.183 56.064C182.663 55.584 183.271 54.912 184.007 54.048C184.775 53.216 185.575 52.32 186.407 51.36C187.239 50.368 188.007 49.472 188.711 48.672C188.999 48.288 189.319 47.904 189.671 47.52L190.631 46.464C190.727 46.368 190.807 46.32 190.871 46.32C191.063 46.32 191.159 46.448 191.159 46.704C191.159 46.8 191.079 46.96 190.919 47.184C190.599 47.632 190.231 48.096 189.815 48.576C189.431 49.056 189.063 49.504 188.711 49.92C187.879 50.88 186.951 51.968 185.927 53.184C184.935 54.368 183.927 55.536 182.903 56.688C181.911 57.84 180.951 58.832 180.023 59.664C179.287 60.304 178.519 60.864 177.719 61.344C176.919 61.824 175.991 62.064 174.935 62.064ZM192.111 60.912C190.863 60.912 189.903 60.4 189.231 59.376C188.559 58.384 188.223 56.96 188.223 55.104C188.223 54.784 188.239 54.464 188.271 54.144C188.271 53.824 188.287 53.488 188.319 53.136C188.511 51.568 188.991 49.856 189.759 48C190.559 46.144 191.775 44.16 193.407 42.048C194.495 40.64 195.679 39.584 196.959 38.88C198.239 38.176 199.471 37.824 200.655 37.824C201.487 37.824 202.223 37.984 202.863 38.304C203.631 38.72 204.015 39.472 204.015 40.56C204.015 41.36 203.727 42.256 203.151 43.248C202.575 44.208 201.599 45.136 200.223 46.032C198.399 47.184 196.879 47.952 195.663 48.336C194.447 48.72 193.471 48.928 192.735 48.96C192.479 49.312 192.223 49.872 191.967 50.64C191.711 51.376 191.487 52.16 191.295 52.992C191.135 53.792 191.023 54.512 190.959 55.152C190.959 55.28 190.943 55.408 190.911 55.536C190.911 55.696 190.911 55.856 190.911 56.016C190.911 56.976 191.071 57.792 191.391 58.464C191.743 59.168 192.351 59.52 193.215 59.52C193.983 59.52 194.847 59.232 195.807 58.656C196.767 58.112 197.711 57.44 198.639 56.64C199.599 55.872 200.431 55.12 201.135 54.384C201.871 53.68 202.383 53.152 202.671 52.8L206.223 48.672L208.143 46.464C208.239 46.368 208.319 46.32 208.383 46.32C208.575 46.32 208.671 46.448 208.671 46.704C208.671 46.8 208.591 46.96 208.431 47.184C208.111 47.632 207.743 48.096 207.327 48.576C206.943 49.056 206.575 49.504 206.223 49.92C205.775 50.432 205.215 51.088 204.543 51.888C203.903 52.688 203.215 53.52 202.479 54.384C201.775 55.248 201.087 56 200.415 56.64C199.199 57.824 197.887 58.832 196.479 59.664C195.103 60.496 193.647 60.912 192.111 60.912ZM193.167 48.192C193.615 48.16 194.175 47.984 194.847 47.664C195.519 47.344 196.223 46.96 196.959 46.512C197.695 46.064 198.367 45.616 198.975 45.168C199.615 44.688 200.127 44.288 200.511 43.968C201.247 43.392 201.791 42.752 202.143 42.048C202.495 41.344 202.671 40.736 202.671 40.224C202.671 39.872 202.575 39.568 202.383 39.312C202.223 39.056 201.967 38.928 201.615 38.928C200.943 38.928 200.207 39.264 199.407 39.936C198.639 40.576 197.855 41.408 197.055 42.432C196.287 43.424 195.551 44.448 194.847 45.504C194.175 46.528 193.615 47.424 193.167 48.192Z" fill="black"/>
<defs>
<linearGradient id="paint0_linear_1_303" x1="260.547" y1="3.7505" x2="260.547" y2="53.3404" gradientUnits="userSpaceOnUse">
<stop stop-color="#9AF4EF"/>
<stop offset="1" stop-color="white"/>
</linearGradient>
</defs>
</svg>
